<mxfile host="65bd71144e">
    <diagram id="JMYObuIH1QSER_L9iBrt" name="Before_Refactory">
        <mxGraphModel dx="598" dy="422" grid="1" gridSize="10" guides="1" tooltips="1" connect="1" arrows="1" fold="1" page="1" pageScale="1" pageWidth="827" pageHeight="1169" math="0" shadow="0">
            <root>
                <mxCell id="Q607Y2rKxZQUFugG3BdK-0"/>
                <mxCell id="Q607Y2rKxZQUFugG3BdK-1" parent="Q607Y2rKxZQUFugG3BdK-0"/>
                <mxCell id="lSEojUGIZ3p26WDyt8AM-0" value="상태머신" style="text;html=1;align=center;verticalAlign=middle;resizable=0;points=[];autosize=1;strokeColor=none;fillColor=default;fontSize=18;" parent="Q607Y2rKxZQUFugG3BdK-1" vertex="1">
                    <mxGeometry x="785" y="60" width="90" height="30" as="geometry"/>
                </mxCell>
                <mxCell id="lSEojUGIZ3p26WDyt8AM-1" value="Button" style="whiteSpace=wrap;html=1;fontSize=18;" parent="Q607Y2rKxZQUFugG3BdK-1" vertex="1">
                    <mxGeometry x="570" y="443" width="120" height="60" as="geometry"/>
                </mxCell>
                <mxCell id="lSEojUGIZ3p26WDyt8AM-2" value="" style="edgeStyle=none;html=1;fontSize=18;" parent="Q607Y2rKxZQUFugG3BdK-1" source="lSEojUGIZ3p26WDyt8AM-4" target="lSEojUGIZ3p26WDyt8AM-1" edge="1">
                    <mxGeometry relative="1" as="geometry"/>
                </mxCell>
                <mxCell id="lSEojUGIZ3p26WDyt8AM-3" value="" style="edgeStyle=none;html=1;fontSize=18;" parent="Q607Y2rKxZQUFugG3BdK-1" source="lSEojUGIZ3p26WDyt8AM-4" target="lSEojUGIZ3p26WDyt8AM-6" edge="1">
                    <mxGeometry relative="1" as="geometry"/>
                </mxCell>
                <mxCell id="lSEojUGIZ3p26WDyt8AM-4" value="Listener" style="whiteSpace=wrap;html=1;fontSize=18;" parent="Q607Y2rKxZQUFugG3BdK-1" vertex="1">
                    <mxGeometry x="570" y="303" width="120" height="60" as="geometry"/>
                </mxCell>
                <mxCell id="lSEojUGIZ3p26WDyt8AM-5" value="" style="edgeStyle=none;html=1;fontSize=18;exitX=0.5;exitY=0;exitDx=0;exitDy=0;entryX=0.5;entryY=1;entryDx=0;entryDy=0;" parent="Q607Y2rKxZQUFugG3BdK-1" source="lSEojUGIZ3p26WDyt8AM-6" target="lSEojUGIZ3p26WDyt8AM-10" edge="1">
                    <mxGeometry relative="1" as="geometry">
                        <mxPoint x="860" y="250" as="targetPoint"/>
                    </mxGeometry>
                </mxCell>
                <mxCell id="lSEojUGIZ3p26WDyt8AM-6" value="Controller" style="whiteSpace=wrap;html=1;fontSize=18;" parent="Q607Y2rKxZQUFugG3BdK-1" vertex="1">
                    <mxGeometry x="770" y="303" width="120" height="60" as="geometry"/>
                </mxCell>
                <mxCell id="lSEojUGIZ3p26WDyt8AM-7" value="LightView" style="whiteSpace=wrap;html=1;fontSize=18;" parent="Q607Y2rKxZQUFugG3BdK-1" vertex="1">
                    <mxGeometry x="970" y="303" width="120" height="60" as="geometry"/>
                </mxCell>
                <mxCell id="lSEojUGIZ3p26WDyt8AM-8" value="LED" style="whiteSpace=wrap;html=1;fontSize=18;" parent="Q607Y2rKxZQUFugG3BdK-1" vertex="1">
                    <mxGeometry x="970" y="433" width="120" height="60" as="geometry"/>
                </mxCell>
                <mxCell id="lSEojUGIZ3p26WDyt8AM-9" style="edgeStyle=orthogonalEdgeStyle;html=1;exitX=1;exitY=0.5;exitDx=0;exitDy=0;entryX=0.5;entryY=0;entryDx=0;entryDy=0;fontSize=18;rounded=0;" parent="Q607Y2rKxZQUFugG3BdK-1" source="lSEojUGIZ3p26WDyt8AM-10" target="lSEojUGIZ3p26WDyt8AM-7" edge="1">
                    <mxGeometry relative="1" as="geometry"/>
                </mxCell>
                <mxCell id="lSEojUGIZ3p26WDyt8AM-10" value="StandLight&lt;br&gt;Service" style="whiteSpace=wrap;html=1;fontSize=18;" parent="Q607Y2rKxZQUFugG3BdK-1" vertex="1">
                    <mxGeometry x="770" y="170" width="120" height="60" as="geometry"/>
                </mxCell>
                <mxCell id="lSEojUGIZ3p26WDyt8AM-11" value="이벤트 감시 기능" style="text;html=1;align=center;verticalAlign=middle;resizable=0;points=[];autosize=1;strokeColor=none;fillColor=none;fontSize=18;" parent="Q607Y2rKxZQUFugG3BdK-1" vertex="1">
                    <mxGeometry x="555" y="273" width="150" height="30" as="geometry"/>
                </mxCell>
                <mxCell id="lSEojUGIZ3p26WDyt8AM-12" value="밝기 조정 버튼" style="text;html=1;align=center;verticalAlign=middle;resizable=0;points=[];autosize=1;strokeColor=none;fillColor=none;fontSize=18;" parent="Q607Y2rKxZQUFugG3BdK-1" vertex="1">
                    <mxGeometry x="565" y="503" width="130" height="30" as="geometry"/>
                </mxCell>
                <mxCell id="lSEojUGIZ3p26WDyt8AM-13" value="Data 분배" style="text;html=1;align=center;verticalAlign=middle;resizable=0;points=[];autosize=1;strokeColor=none;fillColor=none;fontSize=18;" parent="Q607Y2rKxZQUFugG3BdK-1" vertex="1">
                    <mxGeometry x="785" y="363" width="90" height="30" as="geometry"/>
                </mxCell>
                <mxCell id="lSEojUGIZ3p26WDyt8AM-14" value="출력 담당" style="text;html=1;align=center;verticalAlign=middle;resizable=0;points=[];autosize=1;strokeColor=none;fillColor=none;fontSize=18;" parent="Q607Y2rKxZQUFugG3BdK-1" vertex="1">
                    <mxGeometry x="985" y="273" width="90" height="30" as="geometry"/>
                </mxCell>
                <mxCell id="lSEojUGIZ3p26WDyt8AM-15" value="밝기에 따른 LED On/Off" style="text;html=1;align=center;verticalAlign=middle;resizable=0;points=[];autosize=1;strokeColor=none;fillColor=none;fontSize=18;" parent="Q607Y2rKxZQUFugG3BdK-1" vertex="1">
                    <mxGeometry x="925" y="503" width="210" height="30" as="geometry"/>
                </mxCell>
                <mxCell id="lSEojUGIZ3p26WDyt8AM-16" value="2" style="text;html=1;align=center;verticalAlign=middle;resizable=0;points=[];autosize=1;strokeColor=none;fillColor=none;fontSize=18;" parent="Q607Y2rKxZQUFugG3BdK-1" vertex="1">
                    <mxGeometry x="630" y="413" width="30" height="30" as="geometry"/>
                </mxCell>
                <mxCell id="lSEojUGIZ3p26WDyt8AM-17" value="5" style="text;html=1;align=center;verticalAlign=middle;resizable=0;points=[];autosize=1;strokeColor=none;fillColor=none;fontSize=18;rotation=0;" parent="Q607Y2rKxZQUFugG3BdK-1" vertex="1">
                    <mxGeometry x="999" y="403" width="30" height="30" as="geometry"/>
                </mxCell>
                <mxCell id="lSEojUGIZ3p26WDyt8AM-18" value="LCD" style="whiteSpace=wrap;html=1;fontSize=18;" parent="Q607Y2rKxZQUFugG3BdK-1" vertex="1">
                    <mxGeometry x="1130" y="433" width="120" height="60" as="geometry"/>
                </mxCell>
                <mxCell id="lSEojUGIZ3p26WDyt8AM-19" value="Clock&lt;br&gt;Service" style="whiteSpace=wrap;html=1;fontSize=18;" parent="Q607Y2rKxZQUFugG3BdK-1" vertex="1">
                    <mxGeometry x="770" y="90" width="120" height="60" as="geometry"/>
                </mxCell>
                <mxCell id="lSEojUGIZ3p26WDyt8AM-20" value="" style="endArrow=classic;html=1;rounded=0;entryX=0;entryY=0.5;entryDx=0;entryDy=0;" parent="Q607Y2rKxZQUFugG3BdK-1" target="lSEojUGIZ3p26WDyt8AM-19" edge="1">
                    <mxGeometry width="50" height="50" relative="1" as="geometry">
                        <mxPoint x="830" y="280" as="sourcePoint"/>
                        <mxPoint x="920" y="170" as="targetPoint"/>
                        <Array as="points">
                            <mxPoint x="720" y="280"/>
                            <mxPoint x="720" y="120"/>
                        </Array>
                    </mxGeometry>
                </mxCell>
                <mxCell id="lSEojUGIZ3p26WDyt8AM-21" value="" style="endArrow=classic;html=1;rounded=0;exitX=1;exitY=0.5;exitDx=0;exitDy=0;entryX=0.5;entryY=0;entryDx=0;entryDy=0;" parent="Q607Y2rKxZQUFugG3BdK-1" source="lSEojUGIZ3p26WDyt8AM-19" target="lSEojUGIZ3p26WDyt8AM-22" edge="1">
                    <mxGeometry width="50" height="50" relative="1" as="geometry">
                        <mxPoint x="870" y="220" as="sourcePoint"/>
                        <mxPoint x="1171.7777506510415" y="30" as="targetPoint"/>
                        <Array as="points">
                            <mxPoint x="1190" y="120"/>
                        </Array>
                    </mxGeometry>
                </mxCell>
                <mxCell id="lSEojUGIZ3p26WDyt8AM-22" value="ClockView" style="whiteSpace=wrap;html=1;fontSize=18;" parent="Q607Y2rKxZQUFugG3BdK-1" vertex="1">
                    <mxGeometry x="1130" y="303" width="120" height="60" as="geometry"/>
                </mxCell>
                <mxCell id="lSEojUGIZ3p26WDyt8AM-23" value="" style="endArrow=classic;html=1;rounded=0;entryX=0.5;entryY=0;entryDx=0;entryDy=0;exitX=0.5;exitY=1;exitDx=0;exitDy=0;" parent="Q607Y2rKxZQUFugG3BdK-1" source="lSEojUGIZ3p26WDyt8AM-22" target="lSEojUGIZ3p26WDyt8AM-18" edge="1">
                    <mxGeometry width="50" height="50" relative="1" as="geometry">
                        <mxPoint x="1180" y="293" as="sourcePoint"/>
                        <mxPoint x="1230" y="243" as="targetPoint"/>
                    </mxGeometry>
                </mxCell>
                <mxCell id="lSEojUGIZ3p26WDyt8AM-24" value="" style="endArrow=classic;html=1;rounded=0;exitX=0.5;exitY=1;exitDx=0;exitDy=0;entryX=0.5;entryY=0;entryDx=0;entryDy=0;" parent="Q607Y2rKxZQUFugG3BdK-1" source="lSEojUGIZ3p26WDyt8AM-7" target="lSEojUGIZ3p26WDyt8AM-8" edge="1">
                    <mxGeometry width="50" height="50" relative="1" as="geometry">
                        <mxPoint x="1030.0000000000002" y="373" as="sourcePoint"/>
                        <mxPoint x="1030" y="413" as="targetPoint"/>
                    </mxGeometry>
                </mxCell>
                <mxCell id="lSEojUGIZ3p26WDyt8AM-25" value="ClockCheck" style="whiteSpace=wrap;html=1;fontSize=18;" parent="Q607Y2rKxZQUFugG3BdK-1" vertex="1">
                    <mxGeometry x="711" y="442" width="120" height="60" as="geometry"/>
                </mxCell>
                <mxCell id="lSEojUGIZ3p26WDyt8AM-26" value="" style="endArrow=classic;html=1;rounded=0;entryX=0.5;entryY=0;entryDx=0;entryDy=0;" parent="Q607Y2rKxZQUFugG3BdK-1" target="lSEojUGIZ3p26WDyt8AM-25" edge="1">
                    <mxGeometry width="50" height="50" relative="1" as="geometry">
                        <mxPoint x="630" y="403" as="sourcePoint"/>
                        <mxPoint x="790" y="433" as="targetPoint"/>
                        <Array as="points">
                            <mxPoint x="770" y="403"/>
                        </Array>
                    </mxGeometry>
                </mxCell>
                <mxCell id="lSEojUGIZ3p26WDyt8AM-27" value="" style="endArrow=classic;html=1;rounded=0;exitX=0.5;exitY=1;exitDx=0;exitDy=0;entryX=0.5;entryY=0;entryDx=0;entryDy=0;" parent="Q607Y2rKxZQUFugG3BdK-1" source="lSEojUGIZ3p26WDyt8AM-7" target="lSEojUGIZ3p26WDyt8AM-18" edge="1">
                    <mxGeometry width="50" height="50" relative="1" as="geometry">
                        <mxPoint x="1050" y="363" as="sourcePoint"/>
                        <mxPoint x="1050" y="433" as="targetPoint"/>
                    </mxGeometry>
                </mxCell>
                <mxCell id="lSEojUGIZ3p26WDyt8AM-28" value="back light &lt;br&gt;전원 on/off 버튼" style="text;html=1;align=center;verticalAlign=middle;resizable=0;points=[];autosize=1;strokeColor=none;fillColor=none;fontSize=18;" parent="Q607Y2rKxZQUFugG3BdK-1" vertex="1">
                    <mxGeometry x="560" y="543" width="140" height="50" as="geometry"/>
                </mxCell>
                <mxCell id="lSEojUGIZ3p26WDyt8AM-29" value="Tem/Hud Check" style="whiteSpace=wrap;html=1;fontSize=18;fillColor=#f5f5f5;fontColor=#333333;strokeColor=#666666;" parent="Q607Y2rKxZQUFugG3BdK-1" vertex="1">
                    <mxGeometry x="430" y="443" width="120" height="60" as="geometry"/>
                </mxCell>
                <mxCell id="lSEojUGIZ3p26WDyt8AM-30" value="" style="endArrow=classic;html=1;entryX=0.5;entryY=0;entryDx=0;entryDy=0;rounded=0;" parent="Q607Y2rKxZQUFugG3BdK-1" target="lSEojUGIZ3p26WDyt8AM-29" edge="1">
                    <mxGeometry width="50" height="50" relative="1" as="geometry">
                        <mxPoint x="630" y="403" as="sourcePoint"/>
                        <mxPoint x="545" y="483" as="targetPoint"/>
                        <Array as="points">
                            <mxPoint x="490" y="403"/>
                        </Array>
                    </mxGeometry>
                </mxCell>
                <mxCell id="lSEojUGIZ3p26WDyt8AM-31" value="DHT11" style="text;html=1;align=center;verticalAlign=middle;resizable=0;points=[];autosize=1;strokeColor=none;fillColor=none;fontSize=18;" parent="Q607Y2rKxZQUFugG3BdK-1" vertex="1">
                    <mxGeometry x="455" y="513" width="70" height="30" as="geometry"/>
                </mxCell>
            </root>
        </mxGraphModel>
    </diagram>
    <diagram id="rwZVFnb9-4XuviEcM_qo" name="After_Refactory">
        <mxGraphModel dx="598" dy="422" grid="1" gridSize="10" guides="1" tooltips="1" connect="1" arrows="1" fold="1" page="1" pageScale="1" pageWidth="827" pageHeight="1169" math="0" shadow="0">
            <root>
                <mxCell id="0"/>
                <mxCell id="1" parent="0"/>
                <mxCell id="9y2Xnk73yKWz5HFdWdvc-16" value="상태머신" style="text;html=1;align=center;verticalAlign=middle;resizable=0;points=[];autosize=1;strokeColor=none;fillColor=default;fontSize=18;" parent="1" vertex="1">
                    <mxGeometry x="785" y="60" width="90" height="30" as="geometry"/>
                </mxCell>
                <mxCell id="2" value="Button" style="whiteSpace=wrap;html=1;fontSize=18;" parent="1" vertex="1">
                    <mxGeometry x="570" y="443" width="120" height="60" as="geometry"/>
                </mxCell>
                <mxCell id="6" value="" style="edgeStyle=none;html=1;fontSize=18;" parent="1" source="4" target="2" edge="1">
                    <mxGeometry relative="1" as="geometry"/>
                </mxCell>
                <mxCell id="8" value="" style="edgeStyle=none;html=1;fontSize=18;" parent="1" source="4" target="7" edge="1">
                    <mxGeometry relative="1" as="geometry"/>
                </mxCell>
                <mxCell id="4" value="Listener" style="whiteSpace=wrap;html=1;fontSize=18;" parent="1" vertex="1">
                    <mxGeometry x="570" y="303" width="120" height="60" as="geometry"/>
                </mxCell>
                <mxCell id="14" value="" style="edgeStyle=none;html=1;fontSize=18;" parent="1" source="7" target="13" edge="1">
                    <mxGeometry relative="1" as="geometry"/>
                </mxCell>
                <mxCell id="7" value="Controller" style="whiteSpace=wrap;html=1;fontSize=18;" parent="1" vertex="1">
                    <mxGeometry x="770" y="303" width="120" height="60" as="geometry"/>
                </mxCell>
                <mxCell id="9" value="LightView" style="whiteSpace=wrap;html=1;fontSize=18;" parent="1" vertex="1">
                    <mxGeometry x="970" y="303" width="120" height="60" as="geometry"/>
                </mxCell>
                <mxCell id="11" value="LED" style="whiteSpace=wrap;html=1;fontSize=18;" parent="1" vertex="1">
                    <mxGeometry x="970" y="433" width="120" height="60" as="geometry"/>
                </mxCell>
                <mxCell id="15" style="edgeStyle=orthogonalEdgeStyle;html=1;exitX=1;exitY=0.5;exitDx=0;exitDy=0;entryX=0.5;entryY=0;entryDx=0;entryDy=0;fontSize=18;rounded=0;" parent="1" source="13" target="9" edge="1">
                    <mxGeometry relative="1" as="geometry"/>
                </mxCell>
                <mxCell id="13" value="StandLight&lt;br&gt;Service" style="whiteSpace=wrap;html=1;fontSize=18;" parent="1" vertex="1">
                    <mxGeometry x="770" y="170" width="120" height="60" as="geometry"/>
                </mxCell>
                <mxCell id="szuwJWis8nQknmfIzJze-15" value="이벤트 감시 기능" style="text;html=1;align=center;verticalAlign=middle;resizable=0;points=[];autosize=1;strokeColor=none;fillColor=none;fontSize=18;" parent="1" vertex="1">
                    <mxGeometry x="555" y="273" width="150" height="30" as="geometry"/>
                </mxCell>
                <mxCell id="w9Cy5VkCyTSzo7sKhBWU-15" value="밝기 조정 버튼" style="text;html=1;align=center;verticalAlign=middle;resizable=0;points=[];autosize=1;strokeColor=none;fillColor=none;fontSize=18;" parent="1" vertex="1">
                    <mxGeometry x="565" y="503" width="130" height="30" as="geometry"/>
                </mxCell>
                <mxCell id="9y2Xnk73yKWz5HFdWdvc-15" value="Data 분배" style="text;html=1;align=center;verticalAlign=middle;resizable=0;points=[];autosize=1;strokeColor=none;fillColor=none;fontSize=18;" parent="1" vertex="1">
                    <mxGeometry x="785" y="363" width="90" height="30" as="geometry"/>
                </mxCell>
                <mxCell id="fHrxmDvhUKm00rAb14zx-15" value="출력 담당" style="text;html=1;align=center;verticalAlign=middle;resizable=0;points=[];autosize=1;strokeColor=none;fillColor=none;fontSize=18;" parent="1" vertex="1">
                    <mxGeometry x="985" y="273" width="90" height="30" as="geometry"/>
                </mxCell>
                <mxCell id="fHrxmDvhUKm00rAb14zx-16" value="밝기에 따른 LED On/Off" style="text;html=1;align=center;verticalAlign=middle;resizable=0;points=[];autosize=1;strokeColor=none;fillColor=none;fontSize=18;" parent="1" vertex="1">
                    <mxGeometry x="925" y="503" width="210" height="30" as="geometry"/>
                </mxCell>
                <mxCell id="27pAX2alfriOxbwDSxA8-15" value="2" style="text;html=1;align=center;verticalAlign=middle;resizable=0;points=[];autosize=1;strokeColor=none;fillColor=none;fontSize=18;" parent="1" vertex="1">
                    <mxGeometry x="630" y="413" width="30" height="30" as="geometry"/>
                </mxCell>
                <mxCell id="27pAX2alfriOxbwDSxA8-18" value="5" style="text;html=1;align=center;verticalAlign=middle;resizable=0;points=[];autosize=1;strokeColor=none;fillColor=none;fontSize=18;rotation=0;" parent="1" vertex="1">
                    <mxGeometry x="999" y="403" width="30" height="30" as="geometry"/>
                </mxCell>
                <mxCell id="EAKlxYaqVMb8sCtkVegQ-15" value="LCD" style="whiteSpace=wrap;html=1;fontSize=18;" parent="1" vertex="1">
                    <mxGeometry x="1130" y="433" width="120" height="60" as="geometry"/>
                </mxCell>
                <mxCell id="EAKlxYaqVMb8sCtkVegQ-17" value="Clock&lt;br&gt;Service" style="whiteSpace=wrap;html=1;fontSize=18;" parent="1" vertex="1">
                    <mxGeometry x="770" y="90" width="120" height="60" as="geometry"/>
                </mxCell>
                <mxCell id="EAKlxYaqVMb8sCtkVegQ-19" value="" style="endArrow=classic;html=1;rounded=0;entryX=0;entryY=0.5;entryDx=0;entryDy=0;" parent="1" target="EAKlxYaqVMb8sCtkVegQ-17" edge="1">
                    <mxGeometry width="50" height="50" relative="1" as="geometry">
                        <mxPoint x="830" y="280" as="sourcePoint"/>
                        <mxPoint x="920" y="170" as="targetPoint"/>
                        <Array as="points">
                            <mxPoint x="720" y="280"/>
                            <mxPoint x="720" y="120"/>
                        </Array>
                    </mxGeometry>
                </mxCell>
                <mxCell id="EAKlxYaqVMb8sCtkVegQ-20" value="" style="endArrow=classic;html=1;rounded=0;exitX=1;exitY=0.5;exitDx=0;exitDy=0;entryX=0.5;entryY=0;entryDx=0;entryDy=0;" parent="1" source="EAKlxYaqVMb8sCtkVegQ-17" target="EAKlxYaqVMb8sCtkVegQ-21" edge="1">
                    <mxGeometry width="50" height="50" relative="1" as="geometry">
                        <mxPoint x="870" y="220" as="sourcePoint"/>
                        <mxPoint x="1171.7777506510415" y="30" as="targetPoint"/>
                        <Array as="points">
                            <mxPoint x="1190" y="120"/>
                        </Array>
                    </mxGeometry>
                </mxCell>
                <mxCell id="EAKlxYaqVMb8sCtkVegQ-21" value="ClockView" style="whiteSpace=wrap;html=1;fontSize=18;" parent="1" vertex="1">
                    <mxGeometry x="1130" y="303" width="120" height="60" as="geometry"/>
                </mxCell>
                <mxCell id="EAKlxYaqVMb8sCtkVegQ-22" value="" style="endArrow=classic;html=1;rounded=0;entryX=0.5;entryY=0;entryDx=0;entryDy=0;exitX=0.5;exitY=1;exitDx=0;exitDy=0;" parent="1" source="EAKlxYaqVMb8sCtkVegQ-21" target="EAKlxYaqVMb8sCtkVegQ-15" edge="1">
                    <mxGeometry width="50" height="50" relative="1" as="geometry">
                        <mxPoint x="1180" y="293" as="sourcePoint"/>
                        <mxPoint x="1230" y="243" as="targetPoint"/>
                    </mxGeometry>
                </mxCell>
                <mxCell id="EAKlxYaqVMb8sCtkVegQ-23" value="" style="endArrow=classic;html=1;rounded=0;exitX=0.5;exitY=1;exitDx=0;exitDy=0;entryX=0.5;entryY=0;entryDx=0;entryDy=0;" parent="1" source="9" target="11" edge="1">
                    <mxGeometry width="50" height="50" relative="1" as="geometry">
                        <mxPoint x="1030.0000000000002" y="373" as="sourcePoint"/>
                        <mxPoint x="1030" y="413" as="targetPoint"/>
                    </mxGeometry>
                </mxCell>
                <mxCell id="EAKlxYaqVMb8sCtkVegQ-24" value="ClockCheck" style="whiteSpace=wrap;html=1;fontSize=18;" parent="1" vertex="1">
                    <mxGeometry x="711" y="442" width="120" height="60" as="geometry"/>
                </mxCell>
                <mxCell id="EAKlxYaqVMb8sCtkVegQ-25" value="" style="endArrow=classic;html=1;rounded=0;entryX=0.5;entryY=0;entryDx=0;entryDy=0;" parent="1" target="EAKlxYaqVMb8sCtkVegQ-24" edge="1">
                    <mxGeometry width="50" height="50" relative="1" as="geometry">
                        <mxPoint x="630" y="403" as="sourcePoint"/>
                        <mxPoint x="790" y="433" as="targetPoint"/>
                        <Array as="points">
                            <mxPoint x="770" y="403"/>
                        </Array>
                    </mxGeometry>
                </mxCell>
                <mxCell id="no8bhC9AFPKKPmNhesD--15" value="" style="endArrow=classic;html=1;rounded=0;exitX=0.5;exitY=1;exitDx=0;exitDy=0;entryX=0.5;entryY=0;entryDx=0;entryDy=0;" parent="1" source="9" target="EAKlxYaqVMb8sCtkVegQ-15" edge="1">
                    <mxGeometry width="50" height="50" relative="1" as="geometry">
                        <mxPoint x="1050" y="363" as="sourcePoint"/>
                        <mxPoint x="1050" y="433" as="targetPoint"/>
                    </mxGeometry>
                </mxCell>
                <mxCell id="-pw8HdSL1f8XDyO_IK2W-16" value="back light &lt;br&gt;전원 on/off 버튼" style="text;html=1;align=center;verticalAlign=middle;resizable=0;points=[];autosize=1;strokeColor=none;fillColor=none;fontSize=18;" parent="1" vertex="1">
                    <mxGeometry x="560" y="533" width="140" height="50" as="geometry"/>
                </mxCell>
                <mxCell id="HbkmaVwo25SQipNtwoTD-15" value="Tem/Hud Check" style="whiteSpace=wrap;html=1;fontSize=18;fillColor=#f5f5f5;fontColor=#333333;strokeColor=#666666;" parent="1" vertex="1">
                    <mxGeometry x="430" y="443" width="120" height="60" as="geometry"/>
                </mxCell>
                <mxCell id="HbkmaVwo25SQipNtwoTD-16" value="" style="endArrow=classic;html=1;entryX=0.5;entryY=0;entryDx=0;entryDy=0;rounded=0;" parent="1" target="HbkmaVwo25SQipNtwoTD-15" edge="1">
                    <mxGeometry width="50" height="50" relative="1" as="geometry">
                        <mxPoint x="630" y="403" as="sourcePoint"/>
                        <mxPoint x="545" y="483" as="targetPoint"/>
                        <Array as="points">
                            <mxPoint x="490" y="403"/>
                        </Array>
                    </mxGeometry>
                </mxCell>
                <mxCell id="HbkmaVwo25SQipNtwoTD-17" value="DHT11" style="text;html=1;align=center;verticalAlign=middle;resizable=0;points=[];autosize=1;strokeColor=none;fillColor=none;fontSize=18;" parent="1" vertex="1">
                    <mxGeometry x="455" y="513" width="70" height="30" as="geometry"/>
                </mxCell>
                <mxCell id="bPiwrIvkn2nt1EfNqAWv-21" style="edgeStyle=none;rounded=0;html=1;exitX=0;exitY=0.5;exitDx=0;exitDy=0;entryX=1;entryY=0.5;entryDx=0;entryDy=0;" parent="1" source="7lF-XT0_xbQZDoTgQ98E-15" target="bPiwrIvkn2nt1EfNqAWv-17" edge="1">
                    <mxGeometry relative="1" as="geometry">
                        <Array as="points"/>
                    </mxGeometry>
                </mxCell>
                <mxCell id="7lF-XT0_xbQZDoTgQ98E-15" value="DHT11&lt;br&gt;Service" style="whiteSpace=wrap;html=1;fontSize=18;fillColor=#f5f5f5;fontColor=#333333;strokeColor=#666666;" parent="1" vertex="1">
                    <mxGeometry x="770" width="120" height="60" as="geometry"/>
                </mxCell>
                <mxCell id="7lF-XT0_xbQZDoTgQ98E-16" value="" style="endArrow=classic;html=1;entryX=0;entryY=0.75;entryDx=0;entryDy=0;rounded=0;" parent="1" target="7lF-XT0_xbQZDoTgQ98E-15" edge="1">
                    <mxGeometry width="50" height="50" relative="1" as="geometry">
                        <mxPoint x="720" y="120" as="sourcePoint"/>
                        <mxPoint x="570" y="100" as="targetPoint"/>
                        <Array as="points">
                            <mxPoint x="720" y="45"/>
                        </Array>
                    </mxGeometry>
                </mxCell>
                <mxCell id="7KNk78UtTP6XvwAkgIx0-16" style="edgeStyle=none;rounded=1;html=1;exitX=0.5;exitY=1;exitDx=0;exitDy=0;entryX=0.5;entryY=0;entryDx=0;entryDy=0;" parent="1" source="7lF-XT0_xbQZDoTgQ98E-17" target="7KNk78UtTP6XvwAkgIx0-15" edge="1">
                    <mxGeometry relative="1" as="geometry"/>
                </mxCell>
                <mxCell id="7lF-XT0_xbQZDoTgQ98E-17" value="DHT11View" style="whiteSpace=wrap;html=1;fontSize=18;fillColor=#f5f5f5;fontColor=#333333;strokeColor=#666666;" parent="1" vertex="1">
                    <mxGeometry x="1290" y="303" width="120" height="60" as="geometry"/>
                </mxCell>
                <mxCell id="7lF-XT0_xbQZDoTgQ98E-18" value="" style="endArrow=classic;html=1;rounded=0;exitX=0.5;exitY=1;exitDx=0;exitDy=0;entryX=0.5;entryY=0;entryDx=0;entryDy=0;" parent="1" source="7lF-XT0_xbQZDoTgQ98E-17" target="EAKlxYaqVMb8sCtkVegQ-15" edge="1">
                    <mxGeometry width="50" height="50" relative="1" as="geometry">
                        <mxPoint x="1200" y="373" as="sourcePoint"/>
                        <mxPoint x="1190" y="430" as="targetPoint"/>
                    </mxGeometry>
                </mxCell>
                <mxCell id="7lF-XT0_xbQZDoTgQ98E-19" value="" style="endArrow=classic;html=1;rounded=0;exitX=1;exitY=0.5;exitDx=0;exitDy=0;entryX=0.5;entryY=0;entryDx=0;entryDy=0;" parent="1" source="7lF-XT0_xbQZDoTgQ98E-15" target="7lF-XT0_xbQZDoTgQ98E-17" edge="1">
                    <mxGeometry width="50" height="50" relative="1" as="geometry">
                        <mxPoint x="1120" y="280" as="sourcePoint"/>
                        <mxPoint x="1170" y="230" as="targetPoint"/>
                        <Array as="points">
                            <mxPoint x="1350" y="30"/>
                        </Array>
                    </mxGeometry>
                </mxCell>
                <mxCell id="bPiwrIvkn2nt1EfNqAWv-22" style="edgeStyle=none;rounded=1;html=1;entryX=0.9;entryY=1.007;entryDx=0;entryDy=0;exitX=0;exitY=0.25;exitDx=0;exitDy=0;entryPerimeter=0;" parent="1" source="7" target="bPiwrIvkn2nt1EfNqAWv-17" edge="1">
                    <mxGeometry relative="1" as="geometry">
                        <mxPoint x="630" y="110" as="targetPoint"/>
                        <mxPoint x="720" y="200" as="sourcePoint"/>
                        <Array as="points">
                            <mxPoint x="578" y="200"/>
                        </Array>
                    </mxGeometry>
                </mxCell>
                <mxCell id="bPiwrIvkn2nt1EfNqAWv-17" value="DHT_Data" style="whiteSpace=wrap;html=1;fontSize=18;fillColor=#f5f5f5;fontColor=#333333;strokeColor=#666666;" parent="1" vertex="1">
                    <mxGeometry x="470" width="120" height="60" as="geometry"/>
                </mxCell>
                <mxCell id="bPiwrIvkn2nt1EfNqAWv-18" value="" style="endArrow=classic;html=1;rounded=0;exitX=0.489;exitY=1.047;exitDx=0;exitDy=0;exitPerimeter=0;entryX=0.5;entryY=1;entryDx=0;entryDy=0;" parent="1" source="szuwJWis8nQknmfIzJze-15" target="bPiwrIvkn2nt1EfNqAWv-17" edge="1">
                    <mxGeometry width="50" height="50" relative="1" as="geometry">
                        <mxPoint x="670" y="230" as="sourcePoint"/>
                        <mxPoint x="720" y="180" as="targetPoint"/>
                        <Array as="points">
                            <mxPoint x="628" y="240"/>
                            <mxPoint x="530" y="240"/>
                        </Array>
                    </mxGeometry>
                </mxCell>
                <mxCell id="7KNk78UtTP6XvwAkgIx0-15" value="Monitor" style="whiteSpace=wrap;html=1;fontSize=18;" parent="1" vertex="1">
                    <mxGeometry x="1290" y="433" width="120" height="60" as="geometry"/>
                </mxCell>
            </root>
        </mxGraphModel>
    </diagram>
</mxfile>